HIERARCHY
ROOT Hips
{
  OFFSET 0 89.5177 0.535
  CHANNELS 6 Xposition Yposition Zposition Zrotation Xrotation Yrotation
  JOINT Spine
  {
    OFFSET 12.0259 -0.162855 1.69034e-005
    CHANNELS 3 Zrotation Xrotation Yrotation
    JOINT Spine1
    {
      OFFSET 15.3169 -0.0121922 0
      CHANNELS 3 Zrotation Xrotation Yrotation
      JOINT Spine2
      {
        OFFSET 15.3176 -0.0121908 0
        CHANNELS 3 Zrotation Xrotation Yrotation
        JOINT Neck
        {
          OFFSET 19.9142 1.56338 0
          CHANNELS 3 Zrotation Xrotation Yrotation
          JOINT Head
          {
            OFFSET 6.92651 0 0
            CHANNELS 3 Zrotation Xrotation Yrotation
            End Site
            {
              OFFSET 20.7666 0 0
            }
          }
          JOINT LeftShoulder
          {
            OFFSET -6.20654 0.708824 7.28219
            CHANNELS 3 Zrotation Xrotation Yrotation
            JOINT LeftArm
            {
              OFFSET 14.108 0 -1.52588e-005
              CHANNELS 3 Zrotation Xrotation Yrotation
              JOINT LeftForeArm
              {
                OFFSET 28.5802 0 0
                CHANNELS 3 Zrotation Xrotation Yrotation
                JOINT LeftHand
                {
                  OFFSET 27.092 0 0
                  CHANNELS 3 Zrotation Xrotation Yrotation
                  End Site
                  {
                    OFFSET 9.55928 -0.186424 0.145352
                  }
                }
              }
            }
          }
          JOINT RightShoulder
          {
            OFFSET -6.20654 0.708866 -7.28218
            CHANNELS 3 Zrotation Xrotation Yrotation
            JOINT RightArm
            {
              OFFSET 14.108 0 1.52588e-005
              CHANNELS 3 Zrotation Xrotation Yrotation
              JOINT RightForeArm
              {
                OFFSET 28.5802 0 0
                CHANNELS 3 Zrotation Xrotation Yrotation
                JOINT RightHand
                {
                  OFFSET 27.092 0 0
                  CHANNELS 3 Zrotation Xrotation Yrotation
                  End Site
                  {
                    OFFSET 9.55929 -0.186417 -0.145354
                  }
                }
              }
            }
          }
        }
      }
    }
  }
  JOINT LeftUpLeg
  {
    OFFSET 0.005 -0.535 8.837
    CHANNELS 3 Zrotation Xrotation Yrotation
    JOINT LeftLeg
    {
      OFFSET 39.9035 0 0
      CHANNELS 3 Zrotation Xrotation Yrotation
      JOINT LeftFoot
      {
        OFFSET 39.6689 0 0
        CHANNELS 3 Zrotation Xrotation Yrotation
        JOINT LeftToe
        {
          OFFSET 10.1624 13.6296 0
          CHANNELS 3 Zrotation Xrotation Yrotation
          End Site
          {
            OFFSET 8.38147 0 0
          }
        }
      }
    }
  }
  JOINT RightUpLeg
  {
    OFFSET 0.005 -0.535 -8.837
    CHANNELS 3 Zrotation Xrotation Yrotation
    JOINT RightLeg
    {
      OFFSET 39.9035 0 0
      CHANNELS 3 Zrotation Xrotation Yrotation
      JOINT RightFoot
      {
        OFFSET 39.6689 0 0
        CHANNELS 3 Zrotation Xrotation Yrotation
        JOINT RightToe
        {
          OFFSET 10.1624 13.6296 0
          CHANNELS 3 Zrotation Xrotation Yrotation
          End Site
          {
            OFFSET 8.38147 0 0
          }
        }
      }
    }
  }
}
MOTION
Frames:	13
Frame Time:	0.0333333
232.905 89.8491 -20.235 30.3991 -82.7444 -55.2811 2.41337 -1.51189 -0.570524 4.81411 -3.04592 -1.07726 4.81411 -3.04592 -1.07727 -8.30589e-012 -9.0191e-006 -5.27751e-005 13.7244 -0.898001 10.2712 -178.345 -12.2655 -82.2554 16.9343 -47.4688 29.137 -15.6862 6.36111e-015 -2.78299e-015 -63.2864 -33.525 -53.8095 179.61 11.6515 91.9313 70.7093 64.263 -82.1874 -8.72143 3.18055e-015 -0 -49.4835 29.3822 43.4847 5.35677 2.5765 177.967 -11.4816 3.18055e-015 7.95139e-016 9.26005 6.29494 -13.6962 90 -2.70223e-016 -9.93923e-017 4.52489 -2.05112 176.359 -14.0616 0 4.96962e-017 13.8543 -3.84908 3.54678 90 -1.50331e-015 -0 
232.931 89.8489 -20.2486 30.5985 -82.7509 -55.0845 2.41044 -1.5163 -0.567505 4.8083 -3.05458 -1.07112 4.8083 -3.05458 -1.07113 -8.30748e-012 -9.0191e-006 -5.27751e-005 13.67 -0.872471 10.251 -178.353 -12.2345 -82.2739 16.9184 -47.4352 29.0893 -15.7203 -1.27222e-014 1.19271e-015 -63.2885 -33.5381 -53.8238 179.611 11.6764 91.9226 70.9137 64.2829 -82.3914 -8.72275 0 -7.95139e-016 -49.5165 29.3476 43.507 5.33986 2.56465 177.99 -11.4872 2.38542e-015 -1.98785e-016 9.26569 6.29827 -13.7136 90 2.07792e-015 -9.93923e-017 4.52764 -2.05279 176.382 -14.037 0 4.96962e-017 13.8697 -3.82876 3.50406 90 -1.49089e-015 -0 
232.957 89.8476 -20.2621 30.7277 -82.7569 -54.9549 2.40496 -1.52467 -0.567939 4.79726 -3.07129 -1.07179 4.79726 -3.07129 -1.0718 -8.30828e-012 -9.0191e-006 -5.27751e-005 13.6543 -0.815556 10.2636 -178.349 -12.2622 -82.2726 16.8484 -47.5 29.0088 -15.6988 1.27222e-014 -0 -63.3126 -33.4665 -53.8084 179.606 11.683 91.9465 71.3433 64.2645 -82.8113 -8.74823 0 -0 -49.4895 29.2794 43.3993 5.33371 2.55986 178.013 -11.4826 0 1.98785e-016 9.27139 6.30856 -13.7472 90 4.62796e-016 -0 4.51054 -2.07282 176.403 -14.0627 0 -0 13.877 -3.84337 3.522 90 -8.69683e-017 7.95139e-016 
232.979 89.8462 -20.27 30.8351 -82.7681 -54.8467 2.40186 -1.531 -0.569352 4.79125 -3.08398 -1.07443 4.79125 -3.08398 -1.07444 -8.30589e-012 -9.0191e-006 -5.27751e-005 13.6308 -0.830584 10.2779 -178.343 -12.2722 -82.2507 16.7858 -47.5919 28.926 -15.6976 9.54166e-015 3.57812e-015 -63.2375 -33.5301 -53.7645 179.601 11.7078 91.9646 71.4125 64.1935 -82.916 -8.86409 0 -0 -49.586 29.2908 43.5198 5.32518 2.53127 178.021 -11.4732 0 -0 9.25794 6.28733 -13.6889 90 -1.3449e-015 -9.93923e-017 4.48988 -2.07717 176.417 -14.0826 1.19271e-015 -0 13.887 -3.85048 3.52511 90 -7.95139e-016 -7.95139e-016 
233.01 89.8448 -20.2797 30.967 -82.7709 -54.7139 2.39976 -1.53683 -0.577238 4.78654 -3.09595 -1.09003 4.78654 -3.09595 -1.09004 -8.30748e-012 -9.0191e-006 -5.27751e-005 13.6229 -0.8782 10.2929 -178.341 -12.3008 -82.2559 16.7214 -47.7096 28.8631 -15.7223 3.18055e-015 -3.97569e-016 -63.2137 -33.5581 -53.7615 179.602 11.7771 91.95 71.5899 64.1281 -83.1383 -8.96489 0 1.59028e-015 -49.5966 29.3353 43.5359 5.30508 2.55947 178.057 -11.4947 7.95139e-016 7.95139e-016 9.27756 6.32696 -13.7879 90 -4.32357e-015 -9.93923e-017 4.5225 -2.05097 176.452 -14.0145 -3.97569e-016 -0 13.875 -3.78517 3.41805 90 -8.57259e-016 1.59028e-015 
233.034 89.8435 -20.2868 31.0967 -82.7643 -54.584 2.399 -1.54638 -0.588869 4.78463 -3.11551 -1.11292 4.78463 -3.11551 -1.11293 -8.30748e-012 -9.0191e-006 -5.27751e-005 13.6078 -0.896771 10.3097 -178.345 -12.3153 -82.286 16.6591 -47.7325 28.7946 -15.6894 -6.36111e-015 -1.59028e-015 -63.1879 -33.5009 -53.6726 179.613 11.8332 91.8863 71.4631 64.0982 -83.0589 -9.05195 0 7.95139e-016 -49.5127 29.432 43.5333 5.31964 2.53953 178.039 -11.4608 0 -3.97569e-016 9.24754 6.27988 -13.6338 90 -8.82107e-016 -1.98785e-016 4.50848 -2.06521 176.46 -14.0478 0 -2.98177e-016 13.873 -3.81443 3.46104 90 -4.34841e-016 -7.95139e-016 
233.064 89.8421 -20.2905 31.2694 -82.7699 -54.4207 2.39459 -1.55453 -0.597101 4.77039 -3.13209 -1.12924 4.77039 -3.13209 -1.12925 -8.30748e-012 -9.0191e-006 -5.27751e-005 13.6182 -0.90708 10.3019 -178.347 -12.2937 -82.2807 16.5681 -47.7258 28.6645 -15.6672 9.54166e-015 7.95139e-016 -63.1856 -33.5489 -53.7021 179.612 11.8354 91.8901 71.8533 64.0646 -83.3941 -9.01715 0 7.95139e-016 -49.7307 29.3943 43.7219 5.29979 2.52513 178.077 -11.4653 -7.95139e-016 -0 9.25764 6.29107 -13.6688 90 3.6713e-015 -1.98785e-016 4.49328 -2.06534 176.491 -14.049 3.97569e-016 4.96962e-017 13.8985 -3.80067 3.42178 90 9.93923e-016 -0 
233.096 89.8411 -20.2975 31.2099 -82.7675 -54.4972 2.38776 -1.56046 -0.606443 4.76688 -3.1443 -1.14773 4.76688 -3.1443 -1.14774 -8.3043e-012 -9.0191e-006 -5.27751e-005 13.6681 -0.87711 10.2866 -178.35 -12.2788 -82.2864 16.5676 -47.7498 28.6214 -15.6996 -3.18055e-015 1.98785e-015 -63.2186 -33.5703 -53.7597 179.619 11.84 91.8559 71.8556 64.0518 -83.3535 -8.9661 1.59028e-015 -0 -49.6687 29.3853 43.6406 5.29773 2.57071 178.128 -11.4952 0 -0 9.29859 6.33849 -13.7817 90 -1.73005e-015 -0 4.47462 -2.09974 176.525 -14.1052 3.97569e-016 9.93923e-017 13.928 -3.83938 3.47649 90 -2.23633e-016 -1.59028e-015 
233.121 89.8401 -20.2947 31.1792 -82.786 -54.5364 2.38406 -1.56416 -0.616159 4.75386 -3.15204 -1.16719 4.75386 -3.15204 -1.1672 -8.30828e-012 -9.0191e-006 -5.27751e-005 13.6968 -0.885449 10.2529 -178.352 -12.3 -82.3096 16.5812 -47.8127 28.6803 -15.6841 3.18055e-015 1.98785e-015 -63.2975 -33.4564 -53.7733 179.625 11.843 91.8265 71.7151 64.0142 -83.1882 -8.97641 -1.59028e-015 7.95139e-016 -49.497 29.4415 43.4644 5.27799 2.54931 178.134 -11.493 7.95139e-016 -0 9.26402 6.27601 -13.63 90 4.56894e-015 9.93923e-017 4.45054 -2.08547 176.547 -14.1223 3.97569e-016 4.96962e-017 13.9391 -3.84044 3.47102 90 2.73329e-016 -0 
233.151 89.8396 -20.2963 30.9336 -82.7868 -54.8059 2.38489 -1.56497 -0.624264 4.75528 -3.15401 -1.18334 4.75528 -3.15401 -1.18335 -8.30669e-012 -9.0191e-006 -5.27751e-005 13.7098 -0.862713 10.2164 -178.353 -12.3134 -82.3188 16.5743 -47.8393 28.718 -15.6638 -3.18055e-015 7.95139e-016 -63.2382 -33.4622 -53.7056 179.63 11.8459 91.8019 71.8833 64.0097 -83.3232 -8.99676 -1.59028e-015 -1.59028e-015 -49.5154 29.6108 43.6258 5.30282 2.53851 178.178 -11.4931 -7.95139e-016 -5.96354e-016 9.27431 6.26772 -13.6154 90 4.56273e-015 9.93923e-017 4.46388 -2.0778 176.591 -14.1332 0 -3.47873e-016 13.96 -3.84626 3.47681 90 2.00027e-015 -0 
233.174 89.8389 -20.2985 30.7028 -82.7942 -55.0521 2.38256 -1.56776 -0.63183 4.74678 -3.15985 -1.19848 4.74678 -3.15985 -1.19849 -8.30589e-012 -9.0191e-006 -5.27751e-005 13.7806 -0.824308 10.1895 -178.354 -12.2851 -82.3089 16.5786 -47.806 28.713 -15.6338 -1.27222e-014 4.77083e-015 -63.2922 -33.4222 -53.7434 179.633 11.8536 91.7859 71.9005 63.998 -83.3411 -9.00025 3.18055e-015 -3.18055e-015 -49.4565 29.5846 43.5462 5.2848 2.56786 178.221 -11.5408 2.38542e-015 -7.95139e-016 9.32035 6.30108 -13.7419 90 -2.04686e-015 -0 4.46091 -2.05085 176.622 -14.1474 0 -0 13.9727 -3.8504 3.47899 90 -1.98785e-016 3.18055e-015 
233.194 89.8383 -20.2998 30.5154 -82.8015 -55.2516 2.37771 -1.57506 -0.642174 4.73965 -3.17483 -1.21897 4.73964 -3.17483 -1.21898 -8.30748e-012 -9.0191e-006 -5.27751e-005 13.8535 -0.819152 10.1888 -178.355 -12.2694 -82.3029 16.6126 -47.765 28.7192 -15.626 3.18055e-015 7.95139e-016 -63.3456 -33.366 -53.7656 179.641 11.8948 91.7394 71.4283 63.9863 -82.9706 -9.04349 0 -1.59028e-015 -49.5917 29.6105 43.6965 5.29285 2.54814 178.239 -11.5484 2.38542e-015 -5.96354e-016 9.3115 6.2809 -13.6649 90 -5.59082e-017 -0 4.45534 -2.03517 176.643 -14.1685 0 9.93923e-017 13.9752 -3.85885 3.48989 90 -1.11816e-015 -1.59028e-015 
233.209 89.8377 -20.2951 30.2956 -82.8146 -55.4781 2.37317 -1.57782 -0.652942 4.73094 -3.18075 -1.24051 4.73094 -3.18075 -1.24052 -8.30589e-012 -9.0191e-006 -5.27751e-005 13.8908 -0.852868 10.168 -178.355 -12.2698 -82.303 16.6958 -47.8229 28.8383 -15.6117 -1.27222e-014 -3.18055e-015 -63.3104 -33.5027 -53.8445 179.648 11.9167 91.705 71.1982 63.985 -82.7966 -9.07707 -1.59028e-015 1.59028e-015 -49.6798 29.6642 43.8029 5.27773 2.61269 178.26 -11.5829 7.95139e-016 3.97569e-016 9.32557 6.28689 -13.6943 90 3.41661e-016 1.98785e-016 4.44676 -2.00331 176.662 -14.1837 0 -1.98785e-016 13.9871 -3.85256 3.47225 90 -1.73937e-016 -7.95139e-016 
